<svg xmlns="http://www.w3.org/2000/svg" viewBox="0 0 512 512" width="512" height="512">
  <style>
    path { fill: #2563EB; }
  </style>
  <path d="M128 64c0-17.7 14.3-32 32-32h32c17.7 0 32 14.3 32 32v128h-96V64zM64 64v384h96V352h32c70.7 0 128-57.3 128-128s-57.3-128-128-128H96c-17.7 0-32 14.3-32 32zm288 160c0 35.3-28.7 64-64 64h-32V160h32c35.3 0 64 28.7 64 64zM448 64c0-17.7-14.3-32-32-32s-32 14.3-32 32v64c0 17.7 14.3 32 32 32h32v128H320v128h128c17.7 0 32-14.3 32-32V160c17.7 0 32-14.3 32-32V96c0-17.7-14.3-32-32-32h-32z"/>
  <path d="M256 64L384 192" stroke="#2563EB" stroke-width="24" stroke-linecap="round"/>
  <path d="M384 192L448 128" stroke="#2563EB" stroke-width="24" stroke-linecap="round"/>
  <polygon points="448,128 416,96 448,64 480,96" fill="#2563EB"/>
</svg>